<?xml version="1.0" encoding="utf-8"?>
<!-- Generator: Adobe Illustrator 24.1.2, SVG Export Plug-In . SVG Version: 6.00 Build 0)  -->
<svg version="1.1"
	 id="Capa_1" xmlns:cc="http://creativecommons.org/ns#" xmlns:dc="http://purl.org/dc/elements/1.1/" xmlns:rdf="http://www.w3.org/1999/02/22-rdf-syntax-ns#"
	 xmlns="http://www.w3.org/2000/svg" xmlns:xlink="http://www.w3.org/1999/xlink" x="0px" y="0px" viewBox="0 0 6000 6000"
	 style="enable-background:new 0 0 6000 6000;" xml:space="preserve">
<style type="text/css">
	.st0{fill:url(#SVGID_3_);}
	.st1{opacity:0.71;fill:url(#tex11_1_);enable-background:new    ;}
	.st2{opacity:0.71;fill:url(#tex10_1_);enable-background:new    ;}
	.st3{opacity:0.71;fill:url(#tex09_1_);enable-background:new    ;}
	.st4{opacity:0.71;fill:url(#tex08_1_);enable-background:new    ;}
	.st5{opacity:0.71;fill:url(#tex07_1_);enable-background:new    ;}
	.st6{opacity:0.71;fill:url(#tex06_1_);enable-background:new    ;}
	.st7{opacity:0.71;fill:url(#tex05_1_);enable-background:new    ;}
	.st8{opacity:0.71;fill:url(#tex04_1_);enable-background:new    ;}
	.st9{opacity:0.71;fill:url(#tex03_1_);enable-background:new    ;}
	.st10{opacity:0.71;fill:url(#tex02_1_);enable-background:new    ;}
	.st11{opacity:0.71;fill:url(#tex01_1_);enable-background:new    ;}
	.st12{fill:url(#bigline17_1_);}
	.st13{fill:url(#bigline16_1_);}
	.st14{fill:url(#bigline15_1_);}
	.st15{fill:url(#bigline14_2_);}
	.st16{fill:url(#bigline12_1_);}
	.st17{fill:url(#bigline11_2_);}
	.st18{fill:url(#bigline10_1_);}
	.st19{fill:url(#bigline09_1_);}
	.st20{fill:url(#bigline08_1_);}
	.st21{fill:url(#bigline07_1_);}
	.st22{fill:url(#bigline06_1_);}
	.st23{fill:url(#bigline03_1_);}
	.st24{fill:url(#bigline02_1_);}
	.st25{fill:url(#bigline01_1_);}
	.st26{fill:url(#bigline05_1_);}
	.st27{opacity:0.6;fill:#FFFFFF;enable-background:new    ;}
	.st28{fill:#FFFFFF;}
</style>
<g>
	<g transform="matrix(1.3333 0 0 -1.3333 0 6e3)">
		<g>
			<defs>
				<rect id="SVGID_1_" x="-749.925" y="-749.925" width="5999.85" height="5999.85"/>
			</defs>
			<clipPath id="SVGID_2_">
				<use xlink:href="#SVGID_1_"  style="overflow:visible;"/>
			</clipPath>
		</g>
	</g>
	<g>
		
			<linearGradient id="SVGID_3_" gradientUnits="userSpaceOnUse" x1="4665.396" y1="4792.8389" x2="1285.678" y2="1151.3112" gradientTransform="matrix(1 0 0 -1 0 6000)">
			<stop  offset="0" style="stop-color:#28D1BC"/>
			<stop  offset="0.6007" style="stop-color:#00ABFF"/>
			<stop  offset="1" style="stop-color:#2A5ED6"/>
		</linearGradient>
		<path class="st0" d="M4770.523,1231.05c-473.006-472.94-1101.812-733.406-1770.598-733.406
			c-668.853,0-1297.658,260.467-1770.598,733.406S495.921,2332.795,495.921,3001.648c0,668.903,260.466,1297.709,733.406,1770.598
			c472.89,472.94,1101.678,733.406,1770.598,733.406c668.903,0,1297.709-260.466,1770.598-733.406
			c472.939-472.939,733.406-1101.745,733.406-1770.598C5503.929,2332.862,5243.462,1704.056,4770.523,1231.05z"/>
	</g>
	<g id="backtexture">
		
			<linearGradient id="tex11_1_" gradientUnits="userSpaceOnUse" x1="290.1007" y1="7463.5547" x2="1712.5569" y2="3538.019" gradientTransform="matrix(1 0 0 -1 0 6000)">
			<stop  offset="0.5749" style="stop-color:#FFFFFF"/>
			<stop  offset="1" style="stop-color:#FFFFFF;stop-opacity:0"/>
		</linearGradient>
		<path id="tex11" class="st1" d="M653.74,2123.443l508.246,702.573l848.323-2125.799
			c-287.944,123.881-552.65,302.517-780.982,530.832C971.865,1488.528,777.521,1792.264,653.74,2123.443z"/>
		
			<linearGradient id="tex10_1_" gradientUnits="userSpaceOnUse" x1="362.9599" y1="4704.7109" x2="1823.2333" y2="5752.1245" gradientTransform="matrix(1 0 0 1 0 -2533.4897)">
			<stop  offset="0" style="stop-color:#FFFFFF"/>
			<stop  offset="1" style="stop-color:#FFFFFF;stop-opacity:0"/>
		</linearGradient>
		<path id="tex10" class="st2" d="M611.105,2245.088c-75.12,240.385-115.184,490.785-115.184,751.201
			c0,140.224,10.016,275.44,35.056,410.657l390.625,500.801l1846.836-1346.971L611.105,2245.088z"/>
		
			<linearGradient id="tex09_1_" gradientUnits="userSpaceOnUse" x1="4742.4116" y1="3063.9492" x2="3641.6963" y2="3770.7244" gradientTransform="matrix(1 0 0 1 0 -2533.4897)">
			<stop  offset="0" style="stop-color:#FFFFFF"/>
			<stop  offset="1" style="stop-color:#FFFFFF;stop-opacity:0"/>
		</linearGradient>
		<path id="tex09" class="st3" d="M2539.188,792.766l1382.21,1417.266l445.713-1312.098
			c-290.464-190.304-615.985-315.504-961.537-370.593L2539.188,792.766z"/>
		
			<linearGradient id="tex08_1_" gradientUnits="userSpaceOnUse" x1="3497.6509" y1="3362.7168" x2="2750.1704" y2="2652.9873" gradientTransform="matrix(1 0 0 -1 0 5258)">
			<stop  offset="0" style="stop-color:#FFFFFF"/>
			<stop  offset="1" style="stop-color:#FFFFFF;stop-opacity:0"/>
		</linearGradient>
		<polygon id="tex08" class="st4" points="2638.847,2818.688 3930.914,2848.736 2548.703,1431.47 		"/>
		
			<linearGradient id="tex07_1_" gradientUnits="userSpaceOnUse" x1="5865.6904" y1="1413.6904" x2="4487.3428" y2="3813.8533" gradientTransform="matrix(1 0 0 -1 0 6000)">
			<stop  offset="0" style="stop-color:#FFFFFF"/>
			<stop  offset="1" style="stop-color:#FFFFFF;stop-opacity:0"/>
		</linearGradient>
		<path id="tex07" class="st5" d="M5347.696,3875.595c102.547-275.925,156.233-570.78,156.233-873.948
			c0-10.099-0.251-20.149-0.367-30.232l-1561.848-751.084L5347.696,3875.595z"/>
		
			<linearGradient id="tex06_1_" gradientUnits="userSpaceOnUse" x1="1888.1472" y1="3901.8335" x2="2942.8738" y2="3901.8335" gradientTransform="matrix(1 0 0 -1 0 5258)">
			<stop  offset="0" style="stop-color:#FFFFFF"/>
			<stop  offset="1" style="stop-color:#FFFFFF;stop-opacity:0"/>
		</linearGradient>
		<polygon id="tex06" class="st6" points="1888.147,1293.566 2759.541,1884.511 2944.837,827.822 		"/>
		
			<linearGradient id="tex05_1_" gradientUnits="userSpaceOnUse" x1="5595.1963" y1="3228.3569" x2="5180.3765" y2="3161.0525" gradientTransform="matrix(1 0 0 -1 0 6000)">
			<stop  offset="0" style="stop-color:#FFFFFF"/>
			<stop  offset="1" style="stop-color:#FFFFFF;stop-opacity:0"/>
		</linearGradient>
		<path id="tex05" class="st7" d="M5402.567,2292.931l-266.009-62.867l185.296,1201.922l166.733-152.444
			c10.065-91.646,15.341-184.361,15.341-277.894C5503.929,2758.242,5469.257,2520.178,5402.567,2292.931z"/>
		
			<linearGradient id="tex04_1_" gradientUnits="userSpaceOnUse" x1="4594.0952" y1="352.1516" x2="4357.7373" y2="1507.6808" gradientTransform="matrix(1 0 0 -1 0 6000)">
			<stop  offset="0" style="stop-color:#FFFFFF"/>
			<stop  offset="1" style="stop-color:#FFFFFF;stop-opacity:0"/>
		</linearGradient>
		<path id="tex04" class="st8" d="M4151.65,4776.836l137.303,372.68c143.713-86.605,279.414-188.351,405.265-304.237
			L4151.65,4776.836z"/>
		
			<linearGradient id="tex03_1_" gradientUnits="userSpaceOnUse" x1="6661.231" y1="1583.163" x2="3775.8889" y2="1528.0295" gradientTransform="matrix(1 0 0 -1 0 6000)">
			<stop  offset="0" style="stop-color:#FFFFFF"/>
			<stop  offset="1" style="stop-color:#FFFFFF;stop-opacity:0"/>
		</linearGradient>
		<path id="tex03" class="st9" d="M4874.689,4661.435c117.638-132.528,220.001-275.44,305.873-426.766l-1420.121,139.005
			L4874.689,4661.435z"/>
		
			<linearGradient id="tex02_1_" gradientUnits="userSpaceOnUse" x1="3422.4263" y1="1796.1973" x2="2409.2163" y2="281.9461" gradientTransform="matrix(1 0 0 -1 0 5258)">
			<stop  offset="0" style="stop-color:#FFFFFF"/>
			<stop  offset="1" style="stop-color:#FFFFFF;stop-opacity:0"/>
		</linearGradient>
		<path id="tex02" class="st10" d="M4146.759,4764.116L1327.25,4208.227l360.577,921.474
			c80.128,50.08,165.264,95.152,255.408,135.216L4146.759,4764.116z"/>
		
			<linearGradient id="tex01_1_" gradientUnits="userSpaceOnUse" x1="1046.8961" y1="10482.0117" x2="2102.175" y2="10482.0117" gradientTransform="matrix(-0.7827 0.6224 0.6224 0.7827 -1290.5112 -5457.5615)">
			<stop  offset="0" style="stop-color:#FFFFFF"/>
			<stop  offset="1" style="stop-color:#FFFFFF;stop-opacity:0"/>
		</linearGradient>
		<polygon id="tex01" class="st11" points="4456.755,3447.194 3405.073,3522.314 3920.898,4468.827 		"/>
	</g>
	<g id="big-lines">
		
			<linearGradient id="bigline17_1_" gradientUnits="userSpaceOnUse" x1="1937.2673" y1="4876.0337" x2="3039.8354" y2="4876.0337" gradientTransform="matrix(1 0 0 1 0 -2533.4897)">
			<stop  offset="0" style="stop-color:#FFFFFF"/>
			<stop  offset="1" style="stop-color:#FFFFFF;stop-opacity:0"/>
		</linearGradient>
		<path id="bigline17" class="st12" d="M2063.628,1628.902v35.056c0,5.008,0,5.008-5.008,10.016l-95.152,40.064c0,0,0,0-5.008,0
			s0,0-5.008,0l-20.032-10.016l986.578,1352.162l120.192-85.136L2063.628,1628.902z"/>
		
			<linearGradient id="bigline16_1_" gradientUnits="userSpaceOnUse" x1="3881.2542" y1="4780.8813" x2="2917.2864" y2="4780.8813" gradientTransform="matrix(1 0 0 1 0 -2533.4897)">
			<stop  offset="0" style="stop-color:#FFFFFF"/>
			<stop  offset="1" style="stop-color:#FFFFFF;stop-opacity:0"/>
		</linearGradient>
		<path id="bigline16" class="st13" d="M3771.592,1499.496l-0.234-55.889l-851.361,1537.458l125.2,70.112l837.422-1503.705
			L3771.592,1499.496z"/>
		
			<linearGradient id="bigline15_1_" gradientUnits="userSpaceOnUse" x1="4582.6387" y1="4740.834" x2="2914.9722" y2="4740.834" gradientTransform="matrix(1 0 0 1 0 -2533.4897)">
			<stop  offset="0" style="stop-color:#FFFFFF"/>
			<stop  offset="1" style="stop-color:#FFFFFF;stop-opacity:0"/>
		</linearGradient>
		<path id="bigline15" class="st14" d="M4483.531,1416.296l-1.052-62.817L2914.972,2961.049l105.168,100.16l1562.498-1602.563
			L4483.531,1416.296z"/>
		
			<linearGradient id="bigline14_2_" gradientUnits="userSpaceOnUse" x1="5063.4253" y1="5153.978" x2="2940.8611" y2="5153.978" gradientTransform="matrix(1 0 0 1 0 -2533.4897)">
			<stop  offset="0" style="stop-color:#FFFFFF"/>
			<stop  offset="1" style="stop-color:#FFFFFF;stop-opacity:0"/>
		</linearGradient>
		<path id="bigline14_1_" class="st15" d="M5008.337,2269.927c-5.008,0-5.008-5.008-5.008-10.016v-100.16l-2058.292,786.257
			l50.08,135.216l2068.308-791.265L5008.337,2269.927z"/>
		
			<linearGradient id="bigline12_1_" gradientUnits="userSpaceOnUse" x1="1018.2428" y1="5018.7617" x2="3016.438" y2="5018.7617" gradientTransform="matrix(1 0 0 1 0 -2533.4897)">
			<stop  offset="0" style="stop-color:#FFFFFF"/>
			<stop  offset="1" style="stop-color:#FFFFFF;stop-opacity:0"/>
		</linearGradient>
		<path id="bigline12" class="st16" d="M1087.066,1899.335v90.144c0,5.008-5.008,10.016-5.008,10.016l-60.096,25.04
			l1928.083,1046.674l70.112-130.208L1087.066,1899.335z"/>
		
			<linearGradient id="bigline11_2_" gradientUnits="userSpaceOnUse" x1="1358.3584" y1="5579.6587" x2="2982.906" y2="5579.6587" gradientTransform="matrix(1 0 0 1 0 -2533.4897)">
			<stop  offset="0" style="stop-color:#FFFFFF"/>
			<stop  offset="1" style="stop-color:#FFFFFF;stop-opacity:0"/>
		</linearGradient>
		<path id="bigline11_1_" class="st17" d="M1360.537,3006.105c5.008,0,5.008,10.016,5.008,10.016v125.2
			c0,5.008-5.008,10.016-5.008,10.016l1624.548-65.104l-5.008-145.232L1360.537,3006.105z"/>
		
			<linearGradient id="bigline10_1_" gradientUnits="userSpaceOnUse" x1="811.626" y1="5825.0679" x2="3000.1255" y2="5825.0679" gradientTransform="matrix(1 0 0 1 0 -2533.4897)">
			<stop  offset="0" style="stop-color:#FFFFFF"/>
			<stop  offset="1" style="stop-color:#FFFFFF;stop-opacity:0"/>
		</linearGradient>
		<path id="bigline10_2_" class="st18" d="M879.935,3536.269c1.803,0.701,11.702,2.788,11.819,10.717l0,0l0,0v95.152
			l2108.372-560.897l-45.072-140.224L811.626,3511.93C811.626,3511.914,878.132,3535.568,879.935,3536.269z"/>
		
			<linearGradient id="bigline09_1_" gradientUnits="userSpaceOnUse" x1="2127.0776" y1="5883.895" x2="3029.2268" y2="5883.895" gradientTransform="matrix(1 0 0 1 0 -2533.4897)">
			<stop  offset="0" style="stop-color:#FFFFFF"/>
			<stop  offset="1" style="stop-color:#FFFFFF;stop-opacity:0"/>
		</linearGradient>
		<path id="bigline09" class="st19" d="M2193.836,3609.987v97.239l836.337-598.457l-90.144-115.184l-810.947,579.293
			L2193.836,3609.987z"/>
		
			<linearGradient id="bigline08_1_" gradientUnits="userSpaceOnUse" x1="2191.9746" y1="5214.0742" x2="3018.2961" y2="5214.0742" gradientTransform="matrix(1 0 0 1 0 -2533.4897)">
			<stop  offset="0" style="stop-color:#FFFFFF"/>
			<stop  offset="1" style="stop-color:#FFFFFF;stop-opacity:0"/>
		</linearGradient>
		<path id="bigline08" class="st20" d="M2288.988,2289.959v60.096c0,5.008-5.008,10.016-5.008,10.016l-90.144,40.064
			l726.161,671.073l100.16-105.168L2288.988,2289.959z"/>
		
			<linearGradient id="bigline07_1_" gradientUnits="userSpaceOnUse" x1="3328.3918" y1="5108.9058" x2="2911.3801" y2="5108.9058" gradientTransform="matrix(1 0 0 1 0 -2533.4897)">
			<stop  offset="0" style="stop-color:#FFFFFF"/>
			<stop  offset="1" style="stop-color:#FFFFFF;stop-opacity:0"/>
		</linearGradient>
		<path id="bigline07" class="st21" d="M3290.59,2154.743C3290.59,2154.743,3285.582,2154.743,3290.59,2154.743
			c-5.008,0-5.008,0-10.016,0l-95.152-40.064l0,0l-270.432,876.402l140.224,45.072l275.44-896.433L3290.59,2154.743z"/>
		
			<linearGradient id="bigline06_1_" gradientUnits="userSpaceOnUse" x1="3772.7727" y1="5459.4663" x2="3047.5627" y2="5459.4663" gradientTransform="matrix(1 0 0 1 0 -2533.4897)">
			<stop  offset="0" style="stop-color:#FFFFFF"/>
			<stop  offset="1" style="stop-color:#FFFFFF;stop-opacity:0"/>
		</linearGradient>
		<path id="bigline06" class="st22" d="M3741.311,2775.736l-691.105,160.256l35.056,140.224l691.105-160.256L3741.311,2775.736z"/>
		
			<linearGradient id="bigline03_1_" gradientUnits="userSpaceOnUse" x1="4702.8481" y1="6270.7637" x2="2919.9976" y2="6270.7637" gradientTransform="matrix(1 0 0 1 0 -2533.4897)">
			<stop  offset="0" style="stop-color:#FFFFFF"/>
			<stop  offset="1" style="stop-color:#FFFFFF;stop-opacity:0"/>
		</linearGradient>
		<path id="bigline03" class="st23" d="M4597.68,4458.427L4597.68,4458.427L4597.68,4458.427L4597.68,4458.427l100.16-30.048
			c0,0,0,0,5.008,0L3015.15,2956.025l-95.152,110.176l1667.667,1452.323v-50.08
			C4587.664,4468.443,4587.146,4461.031,4597.68,4458.427z"/>
		
			<linearGradient id="bigline02_1_" gradientUnits="userSpaceOnUse" x1="3366.6179" y1="6268.2598" x2="2906.6624" y2="6268.2598" gradientTransform="matrix(1 0 0 1 0 -2533.4897)">
			<stop  offset="0" style="stop-color:#FFFFFF"/>
			<stop  offset="1" style="stop-color:#FFFFFF;stop-opacity:0"/>
		</linearGradient>
		<path id="bigline02" class="st24" d="M3220.478,4488.475l100.16-30.048h5.008l35.056,10.016l-310.497-1487.379l-140.224,30.048
			L3220.478,4488.475L3220.478,4488.475z"/>
		
			<linearGradient id="bigline01_1_" gradientUnits="userSpaceOnUse" x1="4490.9658" y1="5446.9463" x2="2958.5156" y2="5446.9463" gradientTransform="matrix(1 0 0 1 0 -2533.4897)">
			<stop  offset="0" style="stop-color:#FFFFFF"/>
			<stop  offset="1" style="stop-color:#FFFFFF;stop-opacity:0"/>
		</linearGradient>
		<path id="bigline01_2_" class="st25" d="M3741.311,2835.833l-781.249,105.168l20.032,145.232l1512.418-205.328l-20.032-5.008
			c-5.008,0-5.008-5.008-5.008-10.016v-125.2l0,0l0,0l0,0L3741.311,2835.833"/>
		
			<linearGradient id="bigline05_1_" gradientUnits="userSpaceOnUse" x1="4274.5933" y1="1886.5942" x2="2960.749" y2="1886.5942" gradientTransform="matrix(1 0 0 -1 0 5258)">
			<stop  offset="0" style="stop-color:#FFFFFF"/>
			<stop  offset="1" style="stop-color:#FFFFFF;stop-opacity:0"/>
		</linearGradient>
		<path id="bigline05" class="st26" d="M4207.222,3679.532L4207.222,3679.532L4207.222,3679.532c0-4.891,0-4.891,4.891-9.782l0,0
			l0,0l0,0l58.694-19.565l-1242.27-684.711l-68.476,122.262l1247.161,689.603
			C4207.222,3777.338,4207.222,3679.532,4207.222,3679.532z"/>
	</g>
	<path id="lines" class="st27" d="M1332.342,1706.694h0.117c1.419,0,2.587-1.118,2.654-2.537l24.99-594.918
		c-1.853,1.603-3.672,3.272-5.509,4.874l-24.79,589.81C1329.738,1705.375,1330.873,1706.627,1332.342,1706.694z M1457.659,1741.733
		c0.3,0,0.584-0.05,0.885-0.15l400.641-140.208c1.385-0.484,2.103-2.003,1.619-3.389c-0.484-1.385-2.02-2.12-3.389-1.636
		l-400.641,140.208c-1.386,0.484-2.103,2.003-1.619,3.389C1455.539,1741.049,1456.557,1741.733,1457.659,1741.733z
		 M1272.246,2973.703h0.117c1.419,0,2.587-1.119,2.654-2.537l45.072-1071.697c0.067-1.469-1.068-2.704-2.537-2.771h-0.117
		c-1.419,0-2.587,1.119-2.654,2.537l-45.072,1071.697C1269.641,2972.401,1270.793,2973.636,1272.246,2973.703z M3180.397,1987.125
		c1.102,0,2.137-0.684,2.504-1.786c0.468-1.385-0.267-2.905-1.653-3.372L2064.479,1596.35c-1.402-0.501-2.888,0.25-3.372,1.653
		c-0.467,1.385,0.267,2.905,1.653,3.372l1116.769,385.617C3179.813,1987.075,3180.113,1987.125,3180.397,1987.125z
		 M4647.944,1247.392c0.952,0,1.87-0.517,2.354-1.419l45.355-86.588c-1.352-1.235-2.688-2.504-4.023-3.739l-46.023,87.84
		c-0.685,1.302-0.184,2.921,1.102,3.589C4647.125,1247.292,4647.526,1247.392,4647.944,1247.392z M1890.935,1682.906
		l-585.937,1302.082c-0.601,1.335,0,2.921,1.335,3.506c0.351,0.167,0.718,0.25,1.085,0.25c1.018,0,1.987-0.584,2.421-1.569
		l585.937-1302.082c0.601-1.335,0-2.921-1.336-3.505C1893.088,1680.969,1891.519,1681.57,1890.935,1682.906z M1921.3,1515.338
		c0.517,0.684,1.319,1.035,2.103,1.035c0.568,0,1.135-0.184,1.619-0.551c1.169-0.885,1.385-2.537,0.501-3.723l-405.615-530.765
		c-1.419,1.052-2.871,2.053-4.29,3.105c0.017,0.017,0,0.033,0.017,0.05L1921.3,1515.338z M3951.547,2813.146
		c-1.469,0.067-2.604,1.302-2.554,2.754c0.067,1.436,1.235,2.554,2.654,2.554h0.1l506.977-20.032
		c1.469-0.067,2.604-1.302,2.554-2.754c-0.067-1.469-1.202-2.704-2.754-2.554L3951.547,2813.146z M4211.729,1352.711
		c-76.656,7.963-155.933,16.176-230.285,23.154c-1.469,0.134-2.521,1.436-2.404,2.888c0.133,1.385,1.285,2.421,2.637,2.421
		c0.084,0,0.167,0,0.25-0.017c74.385-6.978,153.679-15.191,230.352-23.17c89.41-9.281,181.891-18.864,270.449-26.91
		c1.453-0.133,2.521-1.419,2.404-2.888c-0.15-1.452-1.502-2.654-2.888-2.404C4393.654,1333.847,4301.172,1343.429,4211.729,1352.711
		z M5182.715,2117.167c0.301,0.117,0.601,0.167,0.901,0.167c1.085,0,2.12-0.684,2.487-1.753l71.414-199.753
		c-1.068-2.22-2.17-4.44-3.255-6.661l-73.15,204.611C5180.612,2115.164,5181.347,2116.683,5182.715,2117.167z M2571.824,998.361
		c0.017,0.134,0.184,0.184,0.234,0.3c0.184,0.568,0.517,1.002,1.018,1.335c0.117,0.083,0.117,0.267,0.25,0.317l1793.435,830.294
		l-467.564,913.861c-0.668,1.302-0.15,2.905,1.152,3.573c0.384,0.2,0.801,0.301,1.202,0.301c0.968,0,1.886-0.534,2.371-1.452
		l467.664-914.045l311.815,144.364l-52.985,462.874l-679.937,333.283c-1.302,0.634-1.853,2.237-1.202,3.556
		c0.45,0.935,1.402,1.486,2.387,1.486c0.384,0,0.801-0.084,1.169-0.284l676.883-331.781l-29.647,258.981
		c-0.167,1.469,0.884,2.788,2.337,2.955c0.117,0,0.217,0.017,0.317,0.017c1.335,0,2.47-1.001,2.637-2.354l30.031-262.386
		l360.661-176.783c1.302-0.634,1.853-2.237,1.202-3.556c-0.634-1.302-2.237-1.836-3.556-1.202l-357.588,175.28l52.4-457.749
		l318.743,147.569c0.351,0.167,0.735,0.25,1.102,0.25c1.001,0,1.953-0.567,2.42-1.552c0.618-1.319,0.034-2.905-1.302-3.522
		l-320.312-148.287l35.69-311.682l343.199,78.926l20.232,338.174c0.101,1.402,1.252,2.487,2.654,2.487h0.167
		c1.453-0.1,2.571-1.352,2.487-2.821l-20.132-336.605l106.137,24.406c-1.202-2.12-2.471-4.19-3.673-6.31l-102.781-23.638
		l-9.215-153.996c-1.953-2.838-3.873-5.676-5.843-8.514l9.649,161.258l-342.247-78.709l48.377-422.592
		c-1.102-1.102-2.17-2.237-3.272-3.355c-0.501-0.501-1.019-0.985-1.536-1.502l-48.795,426.248l-230.853-53.102l75.654-147.87
		c0.668-1.302,0.15-2.905-1.152-3.572c-1.302-0.651-2.904-0.15-3.572,1.152l-76.255,149.055l-501.735-115.385
		c-1.369-0.267-2.838,0.568-3.172,2.003c-0.334,1.419,0.568,2.855,2.003,3.172l500.4,115.084l-112.313,219.518l-1759.613-814.552
		l1160.94,349.726c0.267,0.083,0.518,0.117,0.768,0.117c1.135,0,2.204-0.751,2.537-1.886c0.417-1.402-0.367-2.888-1.77-3.305
		l-1179.67-355.368h1231.636l39.78,328.192c0.167,1.436,1.236,2.287,2.971,2.32c1.452-0.184,2.47-1.502,2.321-2.971l-39.714-327.54
		h428.101l-192.591,195.797c-1.035,1.035-1.018,2.721,0.033,3.756c0.518,0.501,1.185,0.768,1.853,0.768
		c0.684,0,1.369-0.267,1.886-0.801l196.247-199.519h240.634c-2.337-1.77-4.641-3.556-6.978-5.309h-228.432l93.099-94.635
		c-1.519-0.985-3.021-1.97-4.541-2.955l-95.987,97.589H3828.75l-53.669-375.784c-1.87-0.601-3.739-1.169-5.609-1.769l53.919,377.554
		H2580.905l501.085-496.127c-2.437-0.083-4.858-0.2-7.295-0.267l-502.119,497.145c-0.067,0.067-0.017,0.2-0.083,0.267
		c-0.3,0.367-0.601,0.734-0.668,1.219c-0.033,0.184,0.1,0.351,0.117,0.534C2571.941,998.161,2571.807,998.244,2571.824,998.361z
		 M4486.836,1607.585l232.755,53.536l-35.557,310.53l-310.029-143.546L4486.836,1607.585z M3205.437,1967.093
		c0.735,0,1.469-0.317,1.987-0.901c0.985-1.102,0.868-2.788-0.234-3.756L1856.346,772.817c-1.686,0.868-3.372,1.753-5.041,2.621
		l1352.379,1190.988C3204.185,1966.86,3204.819,1967.093,3205.437,1967.093z M2288.988,2237.526c0.184,0,0.351-0.017,0.534-0.067
		l891.409-185.296c1.436-0.301,2.37-1.703,2.053-3.138c-0.301-1.452-1.719-2.437-3.138-2.053l-891.409,185.296
		c-1.436,0.301-2.354,1.703-2.07,3.138C2286.651,2236.675,2287.753,2237.526,2288.988,2237.526z M1209.045,3173.322
		c1.085-1.002,1.152-2.671,0.167-3.756c-1.035-1.068-2.704-1.168-3.756-0.167c-62.5,57.509-124.783,115.969-184.996,172.509
		c-60.43,56.707-122.896,115.368-185.597,173.043c-1.085,1.002-1.152,2.671-0.167,3.756c0.534,0.568,1.235,0.868,1.953,0.868
		c0.651,0,1.285-0.234,1.786-0.701c62.717-57.692,125.2-116.369,185.63-173.094
		C1084.295,3289.258,1146.561,3230.798,1209.045,3173.322z M2050.206,3775.235c-1.202-0.885-2.854-0.634-3.723,0.518
		l-777.41,1035.289c1.285,1.235,2.537,2.504,3.823,3.739l777.81-1035.84C2051.609,3777.772,2051.375,3776.103,2050.206,3775.235z
		 M4718.189,4631.07c-1.72,0-2.788,0.885-2.955,2.337l-25.073,215.628c2.003-1.853,3.99-3.722,6.01-5.576l24.355-209.435
		C4720.677,4632.556,4719.625,4631.253,4718.189,4631.07z M3213.9,4500.645c1.185,0.851,2.855,0.601,3.723-0.584
		c0.868-1.186,0.601-2.855-0.584-3.723l-563.1-410.907l1394.897-926.214l271.05,477.296c0.05,0.083,0.15,0.05,0.2,0.117
		c0.317,0.468,0.718,0.918,1.302,1.102c0.267,0.084,0.534,0.134,0.818,0.134c0.434,0,0.901-0.117,1.302-0.35
		c0.05-0.017,0.05-0.084,0.083-0.1c0.518-0.317,0.935-0.768,1.135-1.385l235.41-724.275c0.45-1.385-0.317-2.888-1.72-3.339
		c-1.335-0.417-2.871,0.317-3.338,1.719l-233.541,718.532l-268.262-472.389l414.229-275.04c1.219-0.818,1.553-2.454,0.751-3.689
		c-0.835-1.202-2.437-1.536-3.689-0.751l-413.929,274.84l-131.744-231.988c-0.718-1.252-2.354-1.719-3.622-1.018
		c-1.285,0.735-1.736,2.354-1.018,3.622l131.927,232.321l-1396.817,927.517l-170.723-124.583l1279.379-1044.504
		c1.135-0.935,1.302-2.587,0.367-3.739c-0.918-1.118-2.604-1.319-3.739-0.367L2474.201,3954.271l-283.804-209.118
		c-1.185-0.868-2.838-0.601-3.706,0.551c-0.868,1.185-0.618,2.854,0.568,3.723l282.702,208.316l-1124.314,923.544
		c1.352,1.186,2.688,2.387,4.04,3.572l1124.715-923.861l170.256,124.249l-1255.474,833.6c1.419,1.186,2.821,2.387,4.24,3.572
		l1255.791-833.85L3213.9,4500.645z M3218.057,4603.108c-0.301-1.419-1.653-2.42-3.138-2.036l-1758.312,372.812
		c1.786,1.402,3.556,2.888,5.342,4.29l1754.055-371.912C3217.456,4605.963,3218.374,4604.544,3218.057,4603.108z M5286.248,3017.289
		l216.029,71.13c0.067-1.853,0.15-3.689,0.2-5.542l-211.254-69.561l207.916-165.164c-0.133-2.153-0.267-4.29-0.4-6.444
		l-213.542,169.621l-172.025-56.641l9.632-274.289l345.819-100.694c-0.3-1.753-0.55-3.522-0.851-5.275l-344.785,100.394
		l13.171-374.766c0.05-1.469-1.085-2.704-2.555-2.754c-1.436-0.234-2.704,1.085-2.754,2.554l-13.221,376.535l-435.597,126.836
		c-1.402,0.401-2.204,1.87-1.786,3.289c0.334,1.152,1.385,1.903,2.537,1.903c0.25,0,0.484-0.033,0.751-0.117l433.894-126.335
		l-9.515,270.983l-424.295-139.707c-1.385-0.401-2.888,0.317-3.355,1.703c-0.451,1.385,0.317,2.905,1.703,3.355l425.764,140.191
		l-7.011,199.402l-669.971,532.218c-1.152,0.902-1.335,2.571-0.417,3.723c0.518,0.667,1.285,1.018,2.07,1.018
		c0.584,0,1.152-0.2,1.653-0.584l666.432-529.413l-18.563,528.412l-163.845,178.803l-485.059-112.363
		c-1.502-0.25-2.855,0.568-3.188,1.987c-0.334,1.436,0.567,2.855,1.987,3.188l482.137,111.678l-182.024,198.635l-183.911,100.494
		l-168.303-339.46c-0.667-1.319-2.237-1.836-3.556-1.202c-1.318,0.651-1.853,2.253-1.202,3.555l168.403,339.66L3974.9,4488.859
		l224.342-607.054l59.528-47.342c1.152-0.918,1.335-2.571,0.417-3.723c-0.918-1.169-2.571-1.336-3.723-0.417l-52.701,41.9
		l21.785-58.961c0.501-1.369-0.2-2.905-1.586-3.405c-1.302-0.484-2.888,0.2-3.405,1.586l-24.823,67.157l-770.616,612.763
		c-1.152,0.918-1.335,2.571-0.417,3.723c0.518,0.667,1.285,1.019,2.07,1.019c0.584,0,1.152-0.2,1.653-0.584l763.771-607.338
		l-223.424,604.567L2663.82,5205.271l-112.747-12.62l691.055-546.875c1.152-0.918,1.335-2.587,0.434-3.739s-2.554-1.319-3.739-0.434
		l-696.113,550.881c-0.852,0.667-1.202,1.769-0.902,2.821c0.234,0.818,1.018,1.218,1.786,1.519l-918.369-101.479
		c3.289,2.17,6.594,4.29,9.883,6.443l902.493,99.709l-132.378,103.833l-646.567-138.404c-1.436-0.351-2.838,0.601-3.138,2.037
		c-0.317,1.436,0.601,2.838,2.037,3.138l642.244,137.469l-112.463,88.208c-1.152,0.901-1.352,2.57-0.451,3.722
		c0.518,0.668,1.302,1.035,2.087,1.035c0.584,0,1.152-0.2,1.636-0.567l115.952-90.945l45.773,9.799l-149.606,81.747
		c-1.285,0.701-1.753,2.321-1.052,3.606c0.484,0.885,1.385,1.386,2.337,1.386c0.434,0,0.868-0.117,1.269-0.333l155.015-84.703
		l794.671,170.105c0.184,0.05,0.367,0.067,0.551,0.067c1.219,0,2.337-0.851,2.587-2.104c0.317-1.436-0.601-2.838-2.036-3.138
		l-788.644-168.77l197.483-107.906l996.326,111.528l-37.61,101.763c-0.484,1.302,0.184,2.671,1.419,3.255
		c1.035-0.267,2.053-0.551,3.088-0.818c0.167-0.2,0.384-0.351,0.484-0.618l38.061-102.981l214.092,23.972
		c2.688-1.001,5.375-1.97,8.063-2.988c-0.367-0.851-1.001-1.569-1.987-1.669l-218.266-24.439l303.519-821.297l573.617-313.435
		l124.716,251.536c0.467,0.952,1.402,1.486,2.387,1.486c0.384,0,0.801-0.1,1.168-0.284c1.319-0.651,1.853-2.253,1.202-3.556
		L4550.371,4180.5l182.425-99.676l287.911,400.223c1.102-1.502,2.17-3.021,3.272-4.524l-286.992-398.955l182.893-199.586
		l154.297,35.74l-18.196,518.128c1.887-2.704,3.723-5.442,5.609-8.163l17.862-508.73l231.621,53.652
		c0.701-1.669,1.436-3.305,2.136-4.975l-233.557-54.103l7.528-214.109l404.213-441.105c0.284-2.921,0.568-5.859,0.852-8.781
		l-404.764,441.706l18.496-526.726L5286.248,3017.289z M5112.987,2960.248l167.234,55.071l-174.028,138.254L5112.987,2960.248z
		 M2459.478,5316.983l-47.459-10.167l134.031-105.118c0.852-0.667,1.202-1.769,0.918-2.821c-0.184-0.634-0.634-1.102-1.185-1.436
		l109.959,12.303L2459.478,5316.983z M3663.135,5317.167l-990.1-110.828l1291.966-705.979L3663.135,5317.167z M5074.375,3908.297
		l-150.357-34.822l157.635-172.008L5074.375,3908.297z M4766.767,4611.305c-1.302,0.667-1.836,2.253-1.185,3.572l53.619,107.238
		c1.302-1.386,2.571-2.788,3.873-4.157l-52.734-105.468C4769.655,4611.171,4768.069,4610.67,4766.767,4611.305z M996.021,1826.719
		c0.3,0.117,0.601,0.167,0.901,0.167c1.085,0,2.103-0.668,2.487-1.736l207.048-570.646c-3.005,3.072-6.01,6.126-8.998,9.215
		l-203.025,559.595C993.934,1824.699,994.635,1826.218,996.021,1826.719z M676.476,3604.412l-108.473-2.621
		c0.434,1.786,0.818,3.573,1.269,5.342l107.071,2.587h0.067c1.436,0,2.621-1.152,2.654-2.587
		C679.097,3605.664,677.945,3604.445,676.476,3604.412z M834.012,3486.656c-0.117,1.453,0.968,2.738,2.437,2.855
		c0.067,0.017,0.134,0.017,0.217,0.017c1.369,0,2.537-1.052,2.654-2.437c0.317-3.873,12.904-158.219,30.165-372.245l282.886-20.967
		c1.452-0.1,2.554-1.369,2.454-2.838c-0.1-1.402-1.269-2.454-2.654-2.454c-0.067,0-0.133,0-0.2,0.017l-282.068,20.9
		c5.142-63.802,10.684-132.729,16.443-204.527l264.69,123.598c0.367,0.167,0.751,0.25,1.119,0.25c1.002,0,1.953-0.568,2.404-1.536
		c0.618-1.335,0.05-2.905-1.285-3.539l-266.476-124.432c4.49-56.04,9.098-113.749,13.739-172.025l279.814,270.716
		c0.517,0.501,1.168,0.751,1.836,0.751c0.701,0,1.385-0.284,1.903-0.818c1.018-1.035,1.002-2.721-0.067-3.756l-282.953-273.754
		c19.748-248.03,39.964-505.291,53.385-685.68c0.1-1.469-0.985-2.738-2.454-2.838c-1.436-0.401-2.738,0.985-2.838,2.437
		c-13.355,179.32-33.403,434.611-53.035,681.289l-260.75-252.27l268.63-447.499c0.751-1.252,0.351-2.888-0.901-3.656
		c-1.285-0.734-2.888-0.351-3.639,0.918l-267.962,446.463l-62.85-60.797c-0.484,2.003-0.935,4.006-1.419,6.01l61.465,59.462
		l-107.322,178.786c-0.634,4.424-1.185,8.881-1.803,13.321l113.047-188.318l263.004,254.457
		c-4.708,59.078-9.382,117.588-13.939,174.412l-370.442-173.01c-0.2,1.87-0.417,3.723-0.618,5.592l370.609,173.043
		c-5.843,72.833-11.452,142.711-16.677,207.332l-364.967,27.043c0.1,1.77,0.234,3.522,0.317,5.292l364.199-26.993
		C846.899,3328.838,834.329,3482.8,834.012,3486.656z M3740.125,2878.534L2204.47,3644.743c-1.319,0.651-1.853,2.254-1.185,3.573
		c0.467,0.935,1.402,1.469,2.37,1.469c0.401,0,0.801-0.1,1.185-0.284l1535.673-766.209c1.302-0.651,1.836-2.253,1.185-3.572
		C3743.013,2878.384,3741.427,2877.917,3740.125,2878.534z M1084.562,1870.172c0.384,1.085,1.402,1.77,2.504,1.77
		c0.301,0,0.601-0.05,0.885-0.167l155.248-55.088c1.386-0.484,2.103-2.003,1.619-3.372c-0.484-1.386-2.02-2.153-3.389-1.619
		l-155.248,55.088C1084.796,1867.284,1084.078,1868.786,1084.562,1870.172z M1978.375,3669.816h0.117
		c1.402,0,2.587-1.102,2.654-2.537c0.067-1.452-1.052-2.704-2.521-2.771l-344.334-15.792l90.361-236.161l262.303,191.656
		c0.467,0.35,1.018,0.518,1.569,0.518c0.818,0,1.619-0.367,2.137-1.085c0.868-1.185,0.601-2.838-0.584-3.706l-263.471-192.508
		l19.832-51.85l731.319-182.191l-301.098,422.108c-0.851,1.202-0.584,2.855,0.618,3.723c0.468,0.334,1.002,0.484,1.536,0.484
		c0.818,0,1.653-0.384,2.153-1.102l304.721-427.183l1256.259-312.967c1.436-0.35,2.304-1.786,1.936-3.205
		c-0.35-1.419-1.77-2.253-3.205-1.936l-1250.232,311.465l162.91-228.382l1088.224-107.906c1.469-0.15,2.521-1.452,2.387-2.905
		c-0.134-1.452-1.436-2.621-2.905-2.387l-1083.6,107.439l290.348-407.034l792.701,259.682c0.284,0.083,0.551,0.134,0.835,0.134
		c1.118,0,2.153-0.718,2.521-1.82c0.45-1.402-0.317-2.905-1.703-3.355l-791.115-259.148l273.204-382.996
		c0.851-1.202,0.567-2.854-0.618-3.723c-1.202-0.818-2.855-0.567-3.723,0.618l-274.172,384.365l-650.206-212.991
		c-1.369-0.417-2.871,0.317-3.339,1.703c-0.451,1.402,0.301,2.905,1.703,3.355l648.621,212.473l-292.067,409.455l-770.916,76.439
		l241.687-631.71c0.517-1.369-0.167-2.905-1.536-3.422c-1.369-0.484-2.905,0.15-3.422,1.536l-242.638,634.198l-334.785,33.203
		l69.294-240.184c224.209-207.949,466.296-431.824,476.612-438.868c0.935-0.417,1.586-1.352,1.586-2.437
		c0-1.469-1.185-2.654-2.654-2.654c-3.255,0-162.009,145.783-472.672,433.977l314.97-1091.646c0.401-1.402-0.401-2.888-1.82-3.272
		c-1.419-0.467-2.888,0.401-3.289,1.803l-317.408,1100.109c-70.479,65.388-148.571,137.92-234.408,217.715
		c-1.068,1.002-1.135,2.671-0.134,3.756c0.517,0.551,1.235,0.851,1.937,0.851c0.651,0,1.302-0.25,1.803-0.718
		c64.587-60.029,144.832-134.565,227.914-211.638l-67.441,233.74l-159.388,15.809c-1.452,0.15-2.521,1.452-2.387,2.905
		c0.134,1.369,1.285,2.404,2.638,2.404c0.083,0,0.167,0,0.267-0.017l157.285-15.592l-51.783,179.47l-108.407-79.21
		c-1.185-0.901-2.838-0.634-3.706,0.568c-0.868,1.185-0.601,2.838,0.584,3.706l109.976,80.345l-57.342,198.718l-525.724,130.976
		c-1.419,0.351-2.287,1.786-1.936,3.205c0.3,1.202,1.386,2.02,2.571,2.02c0.217,0,0.417-0.033,0.651-0.083l522.736-130.225
		l-57.442,199.102l-463.024-21.234c-1.436,0.1-2.704,1.068-2.771,2.537c-0.067,1.452,1.052,2.704,2.521,2.771l461.755,21.184
		l-279.464,968.565c1.369,1.636,2.738,3.255,4.123,4.891l280.782-973.224l261.051,11.969l-419.337,1096.036
		c1.352,1.386,2.721,2.788,4.073,4.173l420.84-1099.959L1978.375,3669.816z M1722.148,3404.191l-43.436-31.734l61.448-15.308
		L1722.148,3404.191z M1877.38,3013.316l768.93-76.239l-163.829,229.667l-733.74,182.792L1877.38,3013.316z M1537.236,3047.037
		l334.251-33.136l-129.006,337.189l-69.344,17.278l-188.802-137.954L1537.236,3047.037z M1482.766,3235.839l183.677,134.198
		l-239.617,59.696L1482.766,3235.839z M1367.164,3636.463l57.943-200.838l246.911-61.515l48.177,35.206l-91.496,239.149
		L1367.164,3636.463z M817.034,3714.621c-1.486-0.217-2.804,0.784-3.021,2.237l-60.029,394.548c1.386,2.788,2.704,5.592,4.09,8.38
		l61.181-402.143C819.472,3716.19,818.487,3714.838,817.034,3714.621z"/>
	<g id="block_1_">
		<path id="block01_2_" class="st28" d="M4592.555,1269.812l-65.956,22.82l66.456,25.608l66.457-25.608L4592.555,1269.812z
			 M4510.44,1402.023l73.935,29.447v-96.137l-73.935-29.447V1402.023z M4602.688,1334.231v97.239l72.165-29.23v-96.354
			L4602.688,1334.231z"/>
		<path id="block02_1_" class="st28" d="M3873.489,1350.641l-65.956,22.82l66.456,25.608l66.456-25.608L3873.489,1350.641z
			 M3791.391,1482.852l73.935,29.447v-96.137l-73.935-29.447V1482.852z M3883.621,1415.077v97.239l72.165-29.23v-96.354
			L3883.621,1415.077z"/>
		<path id="block03_1_" class="st28" d="M3287.251,1960.516l-65.956,22.82l66.456,25.608l66.456-25.608L3287.251,1960.516z
			 M3205.153,2092.728l73.935,29.447v-96.137l-73.935-29.447V2092.728z M3297.384,2024.953v97.239l72.165-29.23v-96.354
			L3297.384,2024.953z"/>
		<path id="block04" class="st28" d="M1960.797,1525.454l-65.955,22.82l66.456,25.608l66.456-25.608L1960.797,1525.454z
			 M1878.699,1657.682l73.935,29.447v-96.137l-73.935-29.447V1657.682z M1970.93,1589.89v97.239l72.165-29.23v-96.354
			L1970.93,1589.89z"/>
		<path id="block05" class="st28" d="M1258.49,2990.38l-65.955,22.82l66.456,25.608l66.456-25.608L1258.49,2990.38z
			 M1176.376,3122.591l73.935,29.447v-96.137l-73.935-29.447V3122.591z M1268.623,3054.816v97.239l72.165-29.23v-96.354
			L1268.623,3054.816z"/>
		<path id="block06" class="st28" d="M976.756,1847.285l-65.956,22.82l66.456,25.608l66.456-25.608L976.756,1847.285z
			 M894.659,1979.496l73.935,29.447v-96.137l-73.935-29.447C894.658,1883.359,894.658,1979.496,894.659,1979.496z M986.889,1911.721
			v97.239l72.165-29.23v-96.371L986.889,1911.721z"/>
		<path id="block07_2_" class="st28" d="M3321.906,4482.065l-65.956,22.82l66.456,25.607l66.456-25.607L3321.906,4482.065z
			 M3239.809,4614.276l73.935,29.447v-96.137l-73.935-29.447V4614.276z M3332.04,4546.485v97.239l72.165-29.23v-96.354
			L3332.04,4546.485z"/>
		<path id="block08" class="st28" d="M2178.712,2209.13l-65.956,22.82l66.456,25.607l66.456-25.607L2178.712,2209.13z
			 M2096.614,2341.342l73.935,29.447v-96.137l-73.935-29.447V2341.342z M2188.845,2273.567v97.239l72.165-29.23v-96.354
			L2188.845,2273.567z"/>
		<path id="block09" class="st28" d="M2088.25,3588.703l-65.955,22.82l66.456,25.607l66.456-25.607L2088.25,3588.703z
			 M2006.136,3720.915l73.935,29.447v-96.137l-73.935-29.447V3720.915z M2098.383,3653.139v97.239l72.166-29.23v-96.354
			L2098.383,3653.139z"/>
		<path id="block10" class="st28" d="M4700.645,4461.031l-65.956,22.82l66.457,25.607l66.456-25.607L4700.645,4461.031z
			 M4618.547,4593.259l73.935,29.447v-96.137l-73.935-29.447V4593.259z M4710.777,4525.468v97.239l72.166-29.23v-96.354
			L4710.777,4525.468z"/>
		<path id="block11" class="st28" d="M4321.705,3656.445l-65.956,22.82l66.457,25.608l66.456-25.608L4321.705,3656.445z
			 M4239.607,3788.656l73.935,29.447v-96.137l-73.935-29.447V3788.656z M4331.838,3720.881v97.239l72.165-29.23v-96.354
			L4331.838,3720.881z"/>
		<path id="block12" class="st28" d="M4562.524,2724.955l-65.956,22.82l66.456,25.608l66.457-25.608L4562.524,2724.955z
			 M4480.426,2857.167l73.935,29.447v-96.137l-73.935-29.447V2857.167z M4572.657,2789.392v97.239l72.165-29.23v-96.354
			L4572.657,2789.392z"/>
		<path id="block13" class="st28" d="M5118.095,2111.625l-65.955,22.82l66.456,25.608l66.456-25.608L5118.095,2111.625z
			 M5035.98,2243.836l73.935,29.447v-96.137l-73.935-29.447V2243.836z M5128.228,2176.061v97.239l72.166-29.23v-96.354
			L5128.228,2176.061z"/>
		<path id="block14" class="st28" d="M786.703,3528.373l-65.956,22.82l66.456,25.607l66.456-25.607L786.703,3528.373z
			 M704.605,3660.585l73.935,29.447v-96.137l-73.935-29.447V3660.585z M796.835,3592.81v97.239l72.165-29.23v-96.354
			L796.835,3592.81z"/>
	</g>
	<path id="symbol" class="st28" d="M4488.155,1521.765c-395.282-395.265-920.822-612.997-1479.917-612.997
		c-559.01,0-1084.568,217.665-1479.967,612.93c-395.265,395.332-612.93,920.889-612.93,1479.967s217.665,1084.634,612.93,1479.967
		c395.399,395.282,920.956,612.93,1479.967,612.93c559.027,0,1084.584-217.665,1479.917-612.93
		c395.266-395.332,612.98-920.956,612.98-1479.966C5101.152,2442.604,4883.437,1917.047,4488.155,1521.765z M4356.778,4350.204
		c-360.226,360.226-839.159,558.593-1348.54,558.593c-509.431,0-988.364-198.367-1348.523-558.593
		c-360.226-360.293-558.66-839.158-558.66-1348.523s198.434-988.247,558.66-1348.54
		c360.159-360.226,839.108-558.593,1348.523-558.593c509.365,0,988.314,198.367,1348.54,558.593
		c360.226,360.226,558.593,839.159,558.593,1348.54C4915.372,3511.046,4717.021,3989.978,4356.778,4350.204z M4422.984,2234.671
		c-282.101-519.414-824.201-842.03-1414.746-842.03c-51.232,0-92.848,41.617-92.848,92.865c0,51.232,41.616,92.915,92.848,92.915
		c522.335,0,1001.885,285.44,1251.551,744.908c16.243,29.931,47.526,48.561,81.664,48.561c15.391,0,30.716-3.89,44.304-11.318
		c21.785-11.802,37.66-31.45,44.722-55.255C4437.524,2281.53,4434.853,2256.389,4422.984,2234.671z M4063.559,2872.741
		L2571.49,1961.351c-50.197-27.193-109.458-26.109-158.453,3.222c-49.045,29.213-78.325,80.679-78.325,137.77v1814.518
		c0,57.142,29.263,108.674,78.325,137.771c24.94,14.907,53.302,22.753,81.964,22.753c26.342,0,52.818-6.761,79.11-21.051
		l1488.847-904.146c50.564-28.362,81.965-81.964,81.965-139.89C4144.906,2954.522,4113.756,2901.087,4063.559,2872.741z
		 M2520.492,3871.823V2147.849l1415.163,864.299L2520.492,3871.823z"/>
</g>
</svg>
